HIERARCHY
ROOT Root
{
  OFFSET 0.0 0.0 0.0
  CHANNELS 6 Xposition Yposition Zposition Zrotation Yrotation Xrotation
  JOINT Hips
  {
    OFFSET 0.0 100.0 0.0
    CHANNELS 6 Xposition Yposition Zposition Zrotation Yrotation Xrotation
    JOINT Spine1
    {
      OFFSET -0.013727 5.003763 -0.053727
      CHANNELS 3 Zrotation Yrotation Xrotation
      JOINT Spine2
      {
        OFFSET -0.0 7.125301 -0.029825
        CHANNELS 3 Zrotation Yrotation Xrotation
        JOINT Chest
        {
          OFFSET -1e-06 7.550063 -0.815971
          CHANNELS 3 Zrotation Yrotation Xrotation
          JOINT Neck1
          {
            OFFSET -0.181677 26.311295 -0.553348
            CHANNELS 3 Zrotation Yrotation Xrotation
            JOINT Neck2
            {
              OFFSET -3e-06 7.709397 2.302585
              CHANNELS 3 Zrotation Yrotation Xrotation
              JOINT Head
              {
                OFFSET -5e-06 6.128916 1.953709
                CHANNELS 3 Zrotation Yrotation Xrotation
                JOINT HeadEnd
                {
                  OFFSET 0.003598 16.065403 -1.835379
                  CHANNELS 3 Zrotation Yrotation Xrotation
                }
                JOINT Jaw
                {
                  OFFSET 0.002637 0.475592 3.094941
                  CHANNELS 3 Zrotation Yrotation Xrotation
                }
                JOINT LeftEye
                {
                  OFFSET 3.206381 5.380205 7.586883
                  CHANNELS 3 Zrotation Yrotation Xrotation
                }
                JOINT RightEye
                {
                  OFFSET -3.22244 5.361869 7.558234
                  CHANNELS 3 Zrotation Yrotation Xrotation
                }
              }
            }
          }
          JOINT LeftShoulder
          {
            OFFSET 1.621652 23.237164 5.113413
            CHANNELS 3 Zrotation Yrotation Xrotation
            JOINT LeftArm
            {
              OFFSET 14.919846 2e-06 -5.502326
              CHANNELS 3 Zrotation Yrotation Xrotation
              JOINT LeftForeArm
              {
                OFFSET 28.739307 0.0 -0.002588
                CHANNELS 3 Zrotation Yrotation Xrotation
                JOINT LeftHand
                {
                  OFFSET 27.093981 -1e-06 0.002609
                  CHANNELS 3 Zrotation Yrotation Xrotation
                  JOINT LeftHandThumb1
                  {
                    OFFSET 2.276482 -1.392045 3.191413
                    CHANNELS 3 Zrotation Yrotation Xrotation
                    JOINT LeftHandThumb2
                    {
                      OFFSET 4.012836 -1.828127 1.641654
                      CHANNELS 3 Zrotation Yrotation Xrotation
                      JOINT LeftHandThumb3
                      {
                        OFFSET 2.798515 0.0 -3e-06
                        CHANNELS 3 Zrotation Yrotation Xrotation
                        JOINT LeftHandThumbEnd
                        {
                          OFFSET 3.180793 -4e-06 4e-06
                          CHANNELS 3 Zrotation Yrotation Xrotation
                        }
                      }
                    }
                  }
                  JOINT LeftHandIndex1
                  {
                    OFFSET 3.247555 -0.531998 2.296169
                    CHANNELS 3 Zrotation Yrotation Xrotation
                    JOINT LeftHandIndex2
                    {
                      OFFSET 6.364578 0.01206 0.1786
                      CHANNELS 3 Zrotation Yrotation Xrotation
                      JOINT LeftHandIndex3
                      {
                        OFFSET 3.662364 0.0 0.0
                        CHANNELS 3 Zrotation Yrotation Xrotation
                        JOINT LeftHandIndex4
                        {
                          OFFSET 2.329242 4e-06 4e-06
                          CHANNELS 3 Zrotation Yrotation Xrotation
                          JOINT LeftHandIndexEnd
                          {
                            OFFSET 2.759615 -0.180537 -0.113024
                            CHANNELS 3 Zrotation Yrotation Xrotation
                          }
                        }
                      }
                    }
                  }
                  JOINT LeftHandMiddle1
                  {
                    OFFSET 3.163495 0.240981 1.000332
                    CHANNELS 3 Zrotation Yrotation Xrotation
                    JOINT LeftHandMiddle2
                    {
                      OFFSET 6.19078 -0.259278 -1.002548
                      CHANNELS 3 Zrotation Yrotation Xrotation
                      JOINT LeftHandMiddle3
                      {
                        OFFSET 4.35652 -4e-06 -1e-06
                        CHANNELS 3 Zrotation Yrotation Xrotation
                        JOINT LeftHandMiddle4
                        {
                          OFFSET 2.996877 -8e-06 0.0
                          CHANNELS 3 Zrotation Yrotation Xrotation
                          JOINT LeftHandMiddleEnd
                          {
                            OFFSET 2.304287 -0.294569 -0.031741
                            CHANNELS 3 Zrotation Yrotation Xrotation
                          }
                        }
                      }
                    }
                  }
                  JOINT LeftHandRing1
                  {
                    OFFSET 2.882643 -0.053652 -0.322543
                    CHANNELS 3 Zrotation Yrotation Xrotation
                    JOINT LeftHandRing2
                    {
                      OFFSET 5.854541 -0.486202 -1.373841
                      CHANNELS 3 Zrotation Yrotation Xrotation
                      JOINT LeftHandRing3
                      {
                        OFFSET 4.350578 0.0 3e-06
                        CHANNELS 3 Zrotation Yrotation Xrotation
                        JOINT LeftHandRing4
                        {
                          OFFSET 2.651321 7e-06 2e-06
                          CHANNELS 3 Zrotation Yrotation Xrotation
                          JOINT LeftHandRingEnd
                          {
                            OFFSET 1.936105 0.077687 -7.1e-05
                            CHANNELS 3 Zrotation Yrotation Xrotation
                          }
                        }
                      }
                    }
                  }
                  JOINT LeftHandPinky1
                  {
                    OFFSET 2.8655 -0.310005 -1.600378
                    CHANNELS 3 Zrotation Yrotation Xrotation
                    JOINT LeftHandPinky2
                    {
                      OFFSET 5.087849 -1.331141 -1.77123
                      CHANNELS 3 Zrotation Yrotation Xrotation
                      JOINT LeftHandPinky3
                      {
                        OFFSET 3.070974 4e-06 0.0
                        CHANNELS 3 Zrotation Yrotation Xrotation
                        JOINT LeftHandPinky4
                        {
                          OFFSET 1.549672 0.0 1e-06
                          CHANNELS 3 Zrotation Yrotation Xrotation
                          JOINT LeftHandPinkyEnd
                          {
                            OFFSET 1.944893 -0.157802 0.057219
                            CHANNELS 3 Zrotation Yrotation Xrotation
                          }
                        }
                      }
                    }
                  }
                }
              }
            }
          }
          JOINT RightShoulder
          {
            OFFSET -1.380118 23.180309 5.214158
            CHANNELS 3 Zrotation Yrotation Xrotation
            JOINT RightArm
            {
              OFFSET -15.037196 1.2e-05 -5.545604
              CHANNELS 3 Zrotation Yrotation Xrotation
              JOINT RightForeArm
              {
                OFFSET -28.736639 2e-06 -0.002597
                CHANNELS 3 Zrotation Yrotation Xrotation
                JOINT RightHand
                {
                  OFFSET -27.133619 -0.0 0.002613
                  CHANNELS 3 Zrotation Yrotation Xrotation
                  JOINT RightHandThumb1
                  {
                    OFFSET -2.274032 -1.383988 3.163127
                    CHANNELS 3 Zrotation Yrotation Xrotation
                    JOINT RightHandThumb2
                    {
                      OFFSET -4.011429 -1.827466 1.640914
                      CHANNELS 3 Zrotation Yrotation Xrotation
                      JOINT RightHandThumb3
                      {
                        OFFSET -2.794935 -4e-06 -3e-06
                        CHANNELS 3 Zrotation Yrotation Xrotation
                        JOINT RightHandThumbEnd
                        {
                          OFFSET -3.183852 4e-06 1e-06
                          CHANNELS 3 Zrotation Yrotation Xrotation
                        }
                      }
                    }
                  }
                  JOINT RightHandIndex1
                  {
                    OFFSET -3.253266 -0.520057 2.282866
                    CHANNELS 3 Zrotation Yrotation Xrotation
                    JOINT RightHandIndex2
                    {
                      OFFSET -6.341917 0.012471 0.178266
                      CHANNELS 3 Zrotation Yrotation Xrotation
                      JOINT RightHandIndex3
                      {
                        OFFSET -3.654871 -8e-06 -0.0
                        CHANNELS 3 Zrotation Yrotation Xrotation
                        JOINT RightHandIndex4
                        {
                          OFFSET -2.327586 0.0 1e-06
                          CHANNELS 3 Zrotation Yrotation Xrotation
                          JOINT RightHandIndexEnd
                          {
                            OFFSET -2.76179 -0.180656 -0.113078
                            CHANNELS 3 Zrotation Yrotation Xrotation
                          }
                        }
                      }
                    }
                  }
                  JOINT RightHandMiddle1
                  {
                    OFFSET -3.168106 0.246593 1.00103
                    CHANNELS 3 Zrotation Yrotation Xrotation
                    JOINT RightHandMiddle2
                    {
                      OFFSET -6.180828 -0.258836 -1.000895
                      CHANNELS 3 Zrotation Yrotation Xrotation
                      JOINT RightHandMiddle3
                      {
                        OFFSET -4.348901 0.0 -0.0
                        CHANNELS 3 Zrotation Yrotation Xrotation
                        JOINT RightHandMiddle4
                        {
                          OFFSET -3.00024 -4e-06 -2e-06
                          CHANNELS 3 Zrotation Yrotation Xrotation
                          JOINT RightHandMiddleEnd
                          {
                            OFFSET -2.30252 -0.29437 -0.031706
                            CHANNELS 3 Zrotation Yrotation Xrotation
                          }
                        }
                      }
                    }
                  }
                  JOINT RightHandRing1
                  {
                    OFFSET -2.88569 -0.067952 -0.308858
                    CHANNELS 3 Zrotation Yrotation Xrotation
                    JOINT RightHandRing2
                    {
                      OFFSET -5.854198 -0.48613 -1.373731
                      CHANNELS 3 Zrotation Yrotation Xrotation
                      JOINT RightHandRing3
                      {
                        OFFSET -4.33881 -4e-06 -0.0
                        CHANNELS 3 Zrotation Yrotation Xrotation
                        JOINT RightHandRing4
                        {
                          OFFSET -2.654903 -4e-06 4e-06
                          CHANNELS 3 Zrotation Yrotation Xrotation
                          JOINT RightHandRingEnd
                          {
                            OFFSET -1.933568 0.077527 -5.2e-05
                            CHANNELS 3 Zrotation Yrotation Xrotation
                          }
                        }
                      }
                    }
                  }
                  JOINT RightHandPinky1
                  {
                    OFFSET -2.866425 -0.342796 -1.584145
                    CHANNELS 3 Zrotation Yrotation Xrotation
                    JOINT RightHandPinky2
                    {
                      OFFSET -5.091371 -1.332055 -1.772385
                      CHANNELS 3 Zrotation Yrotation Xrotation
                      JOINT RightHandPinky3
                      {
                        OFFSET -3.062664 -4e-06 1e-06
                        CHANNELS 3 Zrotation Yrotation Xrotation
                        JOINT RightHandPinky4
                        {
                          OFFSET -1.546529 4e-06 -2e-06
                          CHANNELS 3 Zrotation Yrotation Xrotation
                          JOINT RightHandPinkyEnd
                          {
                            OFFSET -1.945119 -0.157718 0.057211
                            CHANNELS 3 Zrotation Yrotation Xrotation
                          }
                        }
                      }
                    }
                  }
                }
              }
            }
          }
        }
      }
    }
    JOINT LeftLeg
    {
      OFFSET 10.043214 -8.434526 2.595655
      CHANNELS 3 Zrotation Yrotation Xrotation
      JOINT LeftShin
      {
        OFFSET -1e-06 -43.221752 -0.802913
        CHANNELS 3 Zrotation Yrotation Xrotation
        JOINT LeftFoot
        {
          OFFSET 1e-06 -42.155094 -3.481523
          CHANNELS 3 Zrotation Yrotation Xrotation
          JOINT LeftToeBase
          {
            OFFSET 0.0 -5.059472 13.231529
            CHANNELS 3 Zrotation Yrotation Xrotation
            JOINT LeftToeEnd
            {
              OFFSET -0.009607 -1.647619 6.513017
              CHANNELS 3 Zrotation Yrotation Xrotation
            }
          }
        }
      }
    }
    JOINT RightLeg
    {
      OFFSET -10.047278 -8.29526 2.620317
      CHANNELS 3 Zrotation Yrotation Xrotation
      JOINT RightShin
      {
        OFFSET 1e-06 -43.362206 -0.805556
        CHANNELS 3 Zrotation Yrotation Xrotation
        JOINT RightFoot
        {
          OFFSET 2e-06 -42.117393 -3.478398
          CHANNELS 3 Zrotation Yrotation Xrotation
          JOINT RightToeBase
          {
            OFFSET -0.0 -5.079609 13.284196
            CHANNELS 3 Zrotation Yrotation Xrotation
            JOINT RightToeEnd
            {
              OFFSET 0.009532 -1.634378 6.460591
              CHANNELS 3 Zrotation Yrotation Xrotation
            }
          }
        }
      }
    }
  }
}
MOTION
Frames: 4
Frame Time: 0.03333333333333333
0.0 0.0 0.0 0.0 -0.0 0.0 0.9067 97.966942 3.107808 1.51335 -0.085747 2.389379 -0.333302 -0.112866 1.764304 -0.511734 0.239077 -4.509919 0.194314 -1.881626 5.185319 -2.877496 3.2593 -3.414616 -0.392024 0.836163 -3.496869 0.165222 -0.110162 -9.350502 7.7e-05 -2.2e-05 6e-06 0.018842 0.009102 0.053521 0.707878 -3.761428 -10.601793 -0.676477 3.785075 -10.611876 -13.694386 -3.996313 15.901795 -54.39481 -19.827681 34.528706 -0.454961 -25.164345 0.101581 2.872393 2.862418 -12.788075 -5.882109 9.861288 0.702589 -10.936875 -0.360576 7.156208 1e-06 8.774828 -2e-06 -15.960257 18.088558 6.165627 -1.844034 2.498506 -2.507277 -10.163604 4.678945 4.621109 -20.97603 -6e-06 0.0 -21.226292 2.451694 -3.594001 1e-06 -5e-06 -1e-06 -1.362681 2.240798 -0.746323 -21.334921 0.584908 3.008325 -13.821218 -4e-06 1e-06 -23.88718 -0.249081 -0.839482 -60.274296 2.511959 -1.032149 -0.294025 1.679687 0.833256 -14.218214 0.093214 1.30058 -34.212063 -0.287567 0.96717 -20.03322 0.964535 1.212844 -1e-06 1e-06 1e-06 -3.440389 0.788234 0.501653 -15.928192 -3.167312 2.99971 -6.338829 -1e-06 -1e-06 -18.123453 3.648182 -4.905672 -5e-06 1e-06 0.0 12.180631 11.188436 17.420282 54.034721 20.099833 33.690613 0.361996 27.90296 0.096375 0.512673 -4.97787 -14.817739 2.243542 -5.255037 -3.18016 14.282894 -0.826594 6.952501 -3e-06 -12.690605 0.0 16.322542 -17.697481 2.331537 1.665666 -1.955922 -2.878299 4.727799 -4.170587 4.993925 11.020528 3e-06 -1e-06 12.109053 -3.735715 -2.866785 0.0 -1e-06 2e-06 1.291986 -1.928549 -1.49809 14.800131 0.567469 3.865607 14.242574 -1.341736 -6.660657 19.631969 0.143928 -0.648245 49.640415 -0.57848 -6.566122 0.35303 -1.511151 -0.03194 20.222797 3.684311 2.316629 18.787281 7e-06 -4e-06 10.751633 -0.479866 1.397905 -0.0 1e-06 -1e-06 3.273808 0.305947 -0.580109 21.48682 11.830376 2.266131 8.162928 2e-06 -1e-06 18.399088 -3.798982 -4.94058 4e-06 -1e-06 -2e-06 -1.595876 8.859972 -14.133492 0.046835 0.12223 25.348145 -4.229624 -1.267372 -13.523423 1.644434 -1.905562 -0.63957 -0.0 -0.0 2e-06 -1.106462 -9.08627 -14.244943 -0.02018 -0.116653 27.525299 1.984896 -0.230253 -15.710466 -1.397784 1.092846 -0.975493 -0.0 0.0 -1e-06 
0.0 0.0 0.0 0.0 -0.0 0.0 0.928463 97.774277 3.019612 1.64482 -0.046086 2.286397 -0.382304 -0.109516 1.975441 -0.522258 0.299331 -4.410522 0.128018 -1.911539 5.083187 -2.798975 3.257671 -3.449608 -0.362377 0.877124 -3.471914 0.184544 -0.16209 -9.401599 7.7e-05 -2.2e-05 6e-06 0.021766 0.046729 0.046451 0.706224 -3.726351 -10.584233 -0.669037 3.825041 -10.59574 -13.249002 -4.038517 15.995131 -55.000492 -20.04858 34.098934 -0.468581 -25.009472 0.069747 3.083403 2.732952 -12.649784 -5.882106 9.861284 0.70259 -10.936872 -0.360575 7.156209 1e-06 8.774826 -0.0 -15.919573 18.076677 6.168457 -1.844031 2.498505 -2.507277 -10.163598 4.678944 4.621109 -20.976021 -4e-06 2e-06 -21.226282 2.451698 -3.593999 1e-06 -5e-06 -0.0 -1.362682 2.240798 -0.746324 -21.334913 0.584909 3.008326 -13.821213 -2e-06 2e-06 -23.887171 -0.249077 -0.839482 -60.283195 2.504316 -0.971289 -0.294026 1.679688 0.833257 -14.218208 0.093214 1.300582 -34.212051 -0.287563 0.967174 -20.033211 0.964539 1.212845 -1e-06 1e-06 1e-06 -3.440388 0.788233 0.501655 -15.928185 -3.167311 2.99971 -6.338825 -1e-06 1e-06 -18.123444 3.648183 -4.905669 -5e-06 0.0 -0.0 11.849416 11.231963 17.587046 54.357105 20.206184 33.4832 0.385528 27.885223 0.101972 0.558756 -4.853347 -14.919341 2.24354 -5.255036 -3.18016 14.282894 -0.826594 6.952507 -4e-06 -12.690605 2e-06 16.358015 -17.690443 2.289359 1.665666 -1.95592 -2.8783 4.727798 -4.170588 4.993926 11.020527 3e-06 -0.0 12.109053 -3.735716 -2.866782 -0.0 -0.0 1e-06 1.291985 -1.928549 -1.498089 14.800131 0.567468 3.865611 14.242573 -1.341734 -6.660658 19.631968 0.143927 -0.648245 49.737728 -0.559283 -6.568729 0.35303 -1.511152 -0.03194 20.222794 3.684311 2.316631 18.787273 6e-06 1e-06 10.751629 -0.479869 1.397907 -0.0 1e-06 0.0 3.273808 0.305947 -0.580112 21.48682 11.830378 2.266135 8.162928 2e-06 0.0 18.399084 -3.798985 -4.940571 4e-06 -0.0 -3e-06 -1.746762 8.73947 -14.529218 0.028856 0.073175 26.241087 -4.374887 -1.164895 -13.929431 1.645427 -1.939585 -0.741167 -0.0 -0.0 2e-06 -1.269444 -8.923444 -14.697633 -0.02028 -0.121199 28.584311 1.988198 -0.532773 -16.219759 -1.401628 1.066792 -1.04858 -0.0 0.0 -1e-06 
0.0 0.0 0.0 0.0 -0.0 0.0 0.91781 97.479668 2.945278 1.803843 0.018776 2.200903 -0.458056 -0.116875 2.245498 -0.525146 0.33338 -4.304337 0.065805 -1.902793 4.982579 -2.650728 3.22452 -3.559955 -0.329622 0.914003 -3.477778 0.187704 -0.19157 -9.440883 7.7e-05 -2.3e-05 6e-06 0.024615 0.063117 0.044617 0.70274 -3.71167 -10.575207 -0.659988 3.842095 -10.582416 -12.539948 -4.122986 16.063351 -55.796143 -20.159956 33.597435 -0.456692 -25.040539 0.048232 3.336794 2.583171 -12.711416 -5.882113 9.861293 0.702591 -10.936881 -0.360575 7.156213 1e-06 8.774832 1e-06 -15.881252 18.103733 6.170079 -1.844035 2.498507 -2.507282 -10.16361 4.678948 4.621109 -20.976044 -4e-06 2e-06 -21.226305 2.451699 -3.594002 1e-06 -4e-06 -0.0 -1.362684 2.2408 -0.746324 -21.334938 0.584909 3.008321 -13.821228 -3e-06 1e-06 -23.887199 -0.249081 -0.839486 -60.29224 2.526268 -1.020894 -0.294025 1.67969 0.833255 -14.218223 0.093215 1.30058 -34.212082 -0.287566 0.967169 -20.033232 0.964536 1.212842 -1e-06 1e-06 1e-06 -3.440391 0.788234 0.501658 -15.928201 -3.167311 2.999707 -6.338833 -0.0 -0.0 -18.123466 3.648185 -4.905675 -4e-06 -0.0 -0.0 11.331175 11.31632 17.647669 54.793045 20.176464 33.237968 0.429687 28.075323 0.104612 0.635248 -4.828903 -15.189931 2.243544 -5.255041 -3.180158 14.2829 -0.826597 6.952505 -1e-06 -12.690615 1e-06 16.381657 -17.654116 2.272673 1.665668 -1.955923 -2.878301 4.727802 -4.170592 4.993926 11.020534 1e-06 -2e-06 12.10906 -3.73572 -2.866788 -0.0 -1e-06 2e-06 1.291987 -1.928551 -1.498089 14.800138 0.567467 3.865605 14.242582 -1.341738 -6.660661 19.631977 0.143925 -0.648248 49.776203 -0.559922 -6.581473 0.353029 -1.511151 -0.031938 20.222803 3.68431 2.316628 18.787287 3e-06 -3e-06 10.751636 -0.479869 1.397903 -0.0 0.0 -1e-06 3.273809 0.305946 -0.580111 21.486828 11.830381 2.266131 8.162932 0.0 -3e-06 18.399099 -3.798988 -4.940582 3e-06 0.0 -1e-06 -1.925164 8.6392 -15.184798 0.028586 0.033373 27.595211 -4.435449 -1.140431 -14.559059 1.650593 -1.963627 -0.838005 -0.0 0.0 2e-06 -1.443126 -8.835052 -15.374418 -0.017093 -0.126682 30.099289 1.976017 -0.901213 -16.981152 -1.403393 1.054379 -1.078535 -0.0 0.0 -1e-06 
0.0 0.0 0.0 0.0 -0.0 0.0 0.885617 97.089882 2.808393 1.849379 0.103138 2.107552 -0.492443 -0.131052 2.621718 -0.506452 0.352871 -4.178973 0.053107 -1.897741 4.873511 -2.400682 3.144974 -3.784226 -0.308051 1.041459 -3.491888 0.210761 -0.131325 -9.624366 7.7e-05 -2.3e-05 5e-06 0.027185 0.067726 0.043584 0.702751 -3.708214 -10.570558 -0.654944 3.846473 -10.574411 -11.458484 -4.237464 16.123692 -56.915371 -20.184229 33.053391 -0.405388 -25.175102 0.033381 3.668503 2.289531 -12.610586 -5.882111 9.86129 0.702591 -10.936878 -0.360573 7.156207 -0.0 8.77483 -1e-06 -15.809945 18.096661 6.185736 -1.844034 2.498505 -2.507279 -10.163606 4.678948 4.621111 -20.976038 -3e-06 -0.0 -21.226299 2.451698 -3.594002 1e-06 -5e-06 -0.0 -1.362683 2.240799 -0.746324 -21.334929 0.584912 3.008325 -13.82122 -2e-06 0.0 -23.887184 -0.249078 -0.839485 -60.311657 2.528451 -1.04446 -0.294024 1.679687 0.833255 -14.218217 0.093216 1.300582 -34.21207 -0.287561 0.967168 -20.03323 0.964537 1.212843 0.0 -0.0 -0.0 -3.44039 0.788234 0.501657 -15.928198 -3.16731 2.999707 -6.33883 0.0 1e-06 -18.123459 3.648183 -4.905674 -4e-06 0.0 0.0 10.534002 11.462574 17.643036 55.501171 20.074446 33.087791 0.431351 28.438427 0.091703 0.823158 -4.814487 -15.640611 2.243543 -5.255038 -3.180159 14.282896 -0.826596 6.952505 -2e-06 -12.690607 -0.0 16.371912 -17.618973 2.283614 1.665667 -1.955922 -2.878299 4.7278 -4.170589 4.993924 11.020529 2e-06 -1e-06 12.109056 -3.735717 -2.866784 -0.0 -1e-06 -0.0 1.291985 -1.928549 -1.49809 14.800132 0.567468 3.865608 14.242576 -1.341737 -6.660661 19.631973 0.143925 -0.648244 49.783443 -0.567262 -6.575929 0.35303 -1.511151 -0.03194 20.222797 3.684307 2.316632 18.787283 2e-06 -2e-06 10.751631 -0.479871 1.397905 -0.0 -0.0 -1e-06 3.273808 0.305947 -0.580112 21.48682 11.830377 2.266133 8.16293 4e-06 -2e-06 18.399084 -3.798986 -4.940576 4e-06 -0.0 -1e-06 -1.97168 8.645572 -16.108376 0.031826 -0.007172 29.458975 -4.429049 -1.209566 -15.407807 1.656723 -1.972311 -0.979013 -0.0 0.0 2e-06 -1.47541 -8.832932 -16.219675 -0.026278 -0.152059 31.899712 1.910227 -1.231267 -17.852837 -1.405979 1.039887 -1.150226 -0.0 0.0 -1e-06 
